<?xml version="1.0" standalone="no"?>
<!DOCTYPE svg PUBLIC "-//W3C//DTD SVG 20010904//EN"
 "http://www.w3.org/TR/2001/REC-SVG-20010904/DTD/svg10.dtd">
<svg version="1.0" xmlns="http://www.w3.org/2000/svg"
 width="479.000000pt" height="640.000000pt" viewBox="0 0 479.000000 640.000000"
 preserveAspectRatio="xMidYMid meet">

<g transform="translate(0.000000,640.000000) scale(0.100000,-0.100000)"
fill="#000000" stroke="none">
<path d="M2498 6170 c-57 -10 -105 -38 -147 -86 -50 -56 -72 -110 -84 -206
-10 -82 -10 -91 6 -99 9 -6 17 -17 17 -25 0 -9 6 -14 12 -12 7 3 19 -2 26 -9
15 -15 156 -17 147 -2 -7 10 25 89 36 89 5 0 19 -18 31 -40 17 -29 31 -41 54
-46 41 -8 101 18 116 50 10 24 12 24 24 8 10 -13 15 -14 25 -5 10 10 9 16 -4
31 -9 10 -17 29 -17 43 1 23 1 23 15 5 8 -11 15 -28 15 -38 0 -19 15 -24 24
-9 11 17 -23 161 -49 214 -33 66 -69 105 -120 128 -43 20 -55 21 -127 9z m111
-150 c46 -23 81 -64 81 -95 0 -20 -7 -23 -60 -28 -33 -4 -75 -14 -92 -23 -27
-14 -37 -14 -69 -4 -21 7 -59 14 -83 14 -27 1 -42 5 -38 11 4 6 7 12 7 15 4
27 22 52 53 72 100 64 137 71 201 38z"/>
<path d="M2264 5758 c-5 -7 -7 -81 -5 -164 2 -142 1 -154 -18 -171 -20 -18
-43 -30 -205 -102 -179 -81 -284 -215 -351 -450 -35 -124 -114 -561 -124 -692
-10 -119 -3 -227 25 -394 21 -129 25 -317 7 -369 -17 -49 -3 -70 25 -38 17 19
27 21 78 18 32 -2 82 -13 110 -23 l52 -20 7 136 c3 75 6 152 5 171 -1 19 5 67
14 105 9 39 18 111 22 160 3 50 17 133 30 185 13 52 24 112 24 135 1 55 19 24
27 -46 3 -28 12 -57 20 -65 19 -19 9 -118 -17 -172 -47 -96 -74 -234 -85 -426
-3 -44 -10 -107 -16 -139 -5 -33 -8 -66 -5 -74 5 -11 1 -13 -17 -6 -26 9 -103
10 -112 1 -4 -4 -9 -52 -12 -107 -9 -149 -36 -129 -49 36 -7 79 -8 85 -17 53
-6 -23 -5 -65 3 -121 6 -47 10 -89 8 -95 -5 -14 14 -15 45 -1 26 11 41 35 35
53 -2 5 2 10 7 11 6 1 9 -5 7 -13 -2 -8 2 -14 9 -14 9 0 9 -3 0 -14 -6 -7 -10
-24 -9 -37 2 -16 -2 -24 -12 -24 -9 0 -14 7 -12 18 3 15 0 17 -17 8 -11 -6
-23 -16 -26 -21 -4 -6 -13 -7 -24 -1 -13 7 -17 5 -18 -10 -1 -13 7 -23 23 -29
13 -5 24 -14 24 -20 0 -6 -4 -8 -10 -5 -12 7 -13 -5 -2 -21 4 -6 13 -4 25 8 9
10 13 18 7 18 -17 0 -33 41 -21 53 8 8 11 8 11 -1 0 -7 7 -12 15 -12 8 0 12
-6 9 -14 -3 -8 0 -17 7 -22 7 -4 10 -3 6 3 -6 10 38 63 53 63 6 0 10 -7 10
-15 0 -8 5 -15 10 -15 6 0 10 13 10 29 0 32 -19 54 -21 24 0 -11 -3 -13 -6 -5
-4 10 -8 10 -21 0 -14 -11 -15 -10 -7 7 4 11 8 37 9 58 0 29 4 37 18 37 11 0
18 -7 18 -18 0 -11 8 -26 18 -36 15 -13 18 -25 12 -61 -4 -25 -4 -48 0 -50 3
-2 7 12 8 31 3 36 20 89 22 64 1 -35 20 16 20 57 0 33 5 45 22 54 l22 12 -22
8 c-12 5 -22 13 -22 18 0 6 7 8 15 5 9 -4 15 0 15 9 0 14 20 27 41 27 5 0 9
-27 9 -60 0 -47 -3 -60 -15 -60 -8 0 -15 -7 -15 -16 0 -8 -4 -13 -9 -10 -8 6
-23 -17 -25 -39 -3 -22 -19 -60 -29 -67 -6 -3 -10 -20 -10 -37 0 -16 -4 -28
-9 -25 -4 3 -9 0 -9 -5 -3 -20 -4 -26 -12 -38 -4 -6 -2 -13 5 -15 24 -8 -19
-39 -45 -33 -22 6 -25 3 -30 -37 -6 -38 -4 -45 21 -66 15 -12 33 -21 41 -20 8
2 28 31 45 66 30 61 32 62 66 58 19 -3 27 -2 17 1 -12 3 -16 10 -13 20 4 9 -1
27 -9 40 -13 19 -14 27 -5 39 7 7 16 12 20 9 4 -3 30 30 56 73 56 90 136 201
146 202 3 0 17 -44 29 -97 20 -82 24 -126 24 -265 0 -93 1 -168 2 -168 2 0 9
16 18 36 11 27 20 35 36 32 19 -3 26 -25 75 -268 29 -146 56 -275 59 -288 5
-21 10 -23 45 -17 36 6 40 5 46 -19 3 -14 3 -34 -1 -43 -11 -25 -7 -41 16 -64
23 -23 25 -49 3 -49 -9 0 -12 5 -8 13 4 6 4 9 -1 5 -4 -4 -10 -182 -12 -395
-5 -508 -7 -552 -26 -587 -12 -22 -14 -45 -10 -92 3 -37 1 -82 -7 -111 -6 -26
-18 -91 -25 -143 -8 -52 -23 -122 -34 -155 -25 -72 -26 -85 -6 -59 8 10 15 14
15 8 0 -6 -7 -17 -15 -24 -8 -7 -15 -9 -15 -4 0 5 -7 0 -15 -10 -8 -11 -15
-14 -15 -8 0 7 -4 12 -10 12 -5 0 -7 -16 -5 -36 3 -22 1 -33 -5 -29 -6 3 -10
-4 -10 -17 0 -18 2 -20 10 -8 8 12 10 11 10 -7 0 -38 36 -52 145 -55 163 -5
185 16 185 172 0 42 9 118 19 170 21 102 33 330 17 330 -6 0 -3 6 6 13 15 11
25 52 33 137 2 19 9 58 14 85 20 93 56 400 75 630 2 28 8 68 13 91 10 42 1 84
-17 84 -5 0 -10 -7 -10 -15 0 -8 -11 -17 -25 -20 -14 -3 -37 -8 -52 -11 -35
-7 -63 -32 -63 -54 0 -17 -27 -47 -34 -39 -2 2 -7 25 -10 51 -6 38 -4 50 11
65 18 18 18 20 -14 53 -52 55 -43 128 16 122 25 -3 31 1 36 21 7 28 48 50 76
42 20 -7 53 18 41 30 -4 4 -2 6 3 4 6 -1 21 2 35 8 14 6 79 28 145 49 137 44
124 25 111 175 l-7 86 26 7 c19 5 25 12 21 22 -3 8 -22 81 -41 161 -37 152
-39 204 -9 232 18 17 18 15 -2 -34 -3 -8 -2 -15 3 -15 16 0 46 73 52 125 5 37
11 51 24 53 10 2 20 -5 25 -18 16 -44 31 5 41 135 6 72 17 169 25 216 21 128
30 450 17 609 -16 187 -59 540 -77 629 -23 111 -99 245 -189 330 -39 37 -89
76 -111 87 -23 11 -56 37 -74 57 -17 20 -37 34 -43 30 -6 -3 -7 -1 -3 5 3 6
-6 33 -21 60 l-27 49 26 109 c42 170 42 170 24 155 -12 -10 -19 -11 -30 -2
-17 14 -22 8 -31 -44 -4 -22 -15 -53 -25 -70 -24 -40 -40 -131 -40 -226 0 -43
-4 -80 -9 -83 -4 -3 -11 -24 -15 -46 -6 -39 -10 -49 -38 -102 -6 -13 -24 -61
-39 -108 l-27 -84 -10 39 c-6 22 -18 69 -27 104 -9 35 -37 109 -61 165 -25 56
-48 107 -51 115 -5 10 -2 12 7 6 8 -5 11 -4 6 3 -11 18 28 77 53 78 13 1 26 5
30 10 3 5 18 15 33 23 l28 14 -51 18 c-111 39 -122 49 -145 117 -12 35 -26 68
-33 75 -6 6 -11 16 -11 22 0 5 5 3 10 -5 8 -12 10 -12 9 5 0 11 -4 29 -8 40
-7 18 -8 18 -18 1 -9 -17 -11 -16 -17 8 -4 15 -4 31 -1 36 4 6 4 10 1 10 -3 0
-8 -6 -12 -12z m56 -123 c0 -12 -19 -12 -23 0 -4 9 -1 12 9 8 7 -3 14 -7 14
-8z m242 -1262 c79 -53 198 -195 198 -235 0 -8 7 -23 15 -34 15 -18 16 -17 10
12 -5 27 17 189 27 200 3 2 13 -42 23 -99 10 -56 28 -142 41 -192 17 -65 19
-85 9 -71 -8 11 -15 25 -15 32 0 18 -40 23 -247 30 l-193 7 -2 31 -1 31 -4
-32 -4 -33 -170 0 c-128 0 -169 3 -170 13 -2 48 3 211 7 222 3 8 27 22 52 31
26 10 106 41 177 70 146 59 181 62 247 17z m-762 -1104 c0 -5 -4 -9 -8 -9 -5
0 -9 7 -9 15 0 8 4 12 9 9 4 -3 8 -9 8 -15z m74 9 c-3 -4 0 -8 5 -8 6 0 11 5
11 10 0 6 7 10 15 10 13 0 14 -4 4 -21 -6 -12 -11 -38 -11 -58 0 -20 -5 -39
-11 -43 -8 -5 -6 -8 6 -8 23 0 22 -17 -3 -30 -16 -9 -20 -8 -20 5 0 8 -4 15
-10 15 -5 0 -7 14 -4 33 4 22 3 28 -4 18 -7 -9 -12 -10 -16 -2 -5 8 -13 8 -27
0 -12 -6 -24 -7 -27 -3 -4 4 -1 9 5 11 9 3 10 10 3 24 -7 13 -7 19 0 19 5 0
10 -7 10 -15 0 -16 9 -19 34 -9 23 9 20 31 -6 39 l-23 7 25 7 c33 10 50 9 44
-1z m1251 -103 c0 -23 -5 -31 -21 -33 -12 -2 -25 -14 -30 -30 -9 -26 -10 -26
-11 11 0 20 3 37 8 37 5 0 9 8 9 18 0 24 10 33 30 30 9 -2 15 -14 15 -33z
m-1155 -55 c0 -11 -4 -20 -10 -20 -5 0 -10 9 -10 20 0 11 5 20 10 20 6 0 10
-9 10 -20z m7 -64 c-4 -9 -13 -13 -22 -10 -20 8 -19 22 3 26 22 5 26 2 19 -16z
m-35 -91 c0 -5 -5 -11 -11 -13 -6 -2 -11 4 -11 13 0 9 5 15 11 13 6 -2 11 -8
11 -13z m-44 -20 c-3 -3 -9 2 -12 12 -6 14 -5 15 5 6 7 -7 10 -15 7 -18z m742
-894 c0 -5 -9 -7 -20 -4 -11 3 -20 7 -20 9 0 2 9 4 20 4 11 0 20 -4 20 -9z
m-5 -861 c3 -5 2 -10 -4 -10 -5 0 -13 5 -16 10 -3 6 -2 10 4 10 5 0 13 -4 16
-10z m28 -117 c-7 -2 -19 -2 -25 0 -7 3 -2 5 12 5 14 0 19 -2 13 -5z m-23
-186 c0 -2 -12 -14 -26 -28 -16 -15 -24 -19 -22 -9 4 21 48 54 48 37z m-48
-113 c-26 -18 -29 -39 -7 -52 12 -6 14 -16 7 -47 -4 -21 -13 -40 -20 -43 -18
-6 -31 38 -21 73 5 16 6 38 3 49 -7 21 10 36 41 36 18 0 18 -1 -3 -16z m-22
-304 c0 -5 -6 -10 -14 -10 -8 0 -18 5 -21 10 -3 6 3 10 14 10 12 0 21 -4 21
-10z"/>
<path d="M2470 5685 c-11 -13 -10 -14 4 -9 9 3 16 10 16 15 0 13 -6 11 -20 -6z"/>
<path d="M2467 5619 c-41 -24 -6 -72 43 -59 24 6 24 6 -7 13 -64 13 -31 34 46
29 13 -1 20 2 15 7 -15 14 -79 20 -97 10z"/>
<path d="M1618 3290 c-4 -37 -1 -73 9 -108 8 -29 12 -60 9 -68 -3 -8 1 -14 9
-14 18 0 20 37 4 77 -7 15 -15 60 -18 98 l-7 70 -6 -55z"/>
<path d="M1585 3300 c-4 -17 -4 -54 0 -82 5 -34 4 -48 -3 -44 -6 3 -4 -8 5
-24 8 -17 17 -30 18 -28 2 2 -1 37 -6 78 -5 41 -7 87 -3 103 3 15 3 27 1 27
-3 0 -8 -14 -12 -30z"/>
<path d="M1541 3124 c0 -11 3 -14 6 -6 3 7 2 16 -1 19 -3 4 -6 -2 -5 -13z"/>
<path d="M1560 3128 c0 -8 11 -25 25 -38 17 -16 25 -19 25 -9 0 8 -12 25 -25
38 -17 16 -25 19 -25 9z"/>
<path d="M1541 3068 c0 -13 3 -18 5 -11 3 7 13 9 22 6 15 -6 15 -5 3 10 -19
24 -31 21 -30 -5z"/>
<path d="M1620 3076 c0 -9 7 -12 21 -9 16 4 17 8 7 14 -19 13 -28 11 -28 -5z"/>
<path d="M1590 3050 c0 -6 -4 -9 -9 -6 -5 4 -16 3 -25 0 -13 -5 -14 -9 -5 -20
9 -11 15 -12 26 -2 12 10 14 6 9 -28 -5 -31 -4 -35 4 -16 10 24 30 22 30 -2 0
-15 55 -15 68 -1 4 5 2 5 -4 2 -7 -4 -14 0 -18 8 -3 8 -17 20 -31 27 -14 6
-25 17 -25 24 0 7 -4 16 -10 19 -5 3 -10 1 -10 -5z"/>
<path d="M1780 2980 c0 -5 -8 -10 -17 -10 -13 0 -14 -3 -5 -12 8 -8 15 -8 27
2 17 14 20 30 5 30 -5 0 -10 -4 -10 -10z"/>
<path d="M1820 2956 c7 -7 13 -7 20 0 6 6 3 10 -10 10 -13 0 -16 -4 -10 -10z"/>
<path d="M1780 2270 c0 -5 5 -10 10 -10 6 0 10 5 10 10 0 6 -4 10 -10 10 -5 0
-10 -4 -10 -10z"/>
<path d="M1770 2200 c0 -5 5 -10 11 -10 5 0 7 5 4 10 -3 6 -8 10 -11 10 -2 0
-4 -4 -4 -10z"/>
<path d="M1740 2094 c0 -11 -5 -14 -17 -9 -15 5 -16 4 -5 -6 16 -17 15 -29 -3
-29 -8 0 -15 7 -15 16 0 9 -7 14 -17 12 -20 -4 -22 -19 -23 -161 0 -54 -4 -85
-10 -82 -6 3 -11 -6 -11 -22 -5 -90 -7 -114 -17 -173 -6 -36 -13 -87 -17 -115
-3 -27 -8 -61 -11 -75 -13 -71 -16 -133 -7 -127 7 4 7 -11 1 -46 -11 -62 -21
-167 -21 -222 2 -261 0 -321 -13 -399 -25 -155 -64 -274 -84 -261 -4 3 -5 -7
-2 -22 3 -16 1 -24 -5 -20 -14 9 -24 -32 -13 -52 23 -44 48 -54 150 -59 94 -4
102 -3 138 21 37 24 39 28 45 94 4 37 7 114 7 169 0 75 5 118 20 165 28 86 38
274 15 282 -8 4 -15 11 -15 16 0 6 6 8 14 5 21 -8 32 60 18 110 -6 25 -7 45
-1 52 19 23 59 146 74 230 19 109 40 236 55 329 6 39 19 117 29 175 11 58 18
106 17 107 -1 2 -18 -2 -37 -8 -29 -8 -54 -8 -164 6 -5 1 -15 -3 -22 -8 -21
-15 -35 3 -29 38 4 19 2 36 -4 40 -6 4 -7 -1 -4 -12 5 -15 4 -15 -5 -3 -5 8
-8 25 -4 37 3 13 2 23 -1 23 -3 0 -6 -7 -6 -16z m10 -976 c0 -13 -4 -29 -9
-37 -7 -12 -12 -11 -30 1 -20 14 -20 16 -4 29 11 9 14 10 9 2 -4 -8 -2 -13 5
-13 6 0 9 8 6 20 -3 13 0 20 9 20 8 0 14 -10 14 -22z m-15 -420 c-4 -29 -6
-66 -5 -83 7 -76 5 -100 -10 -100 -12 0 -16 21 -18 118 -3 114 -2 117 19 117
20 0 21 -3 14 -52z"/>
</g>
</svg>
